<?xml version="1.0" encoding="UTF-8"?>
<svg width="256px" height="256px" viewBox="0 0 256 256" version="1.1" xmlns="http://www.w3.org/2000/svg" xmlns:xlink="http://www.w3.org/1999/xlink">
    <!-- Generator: Sketch 58 (84663) - https://sketch.com -->
    <title>Meeple/Standard</title>
    <desc>Created with Sketch.</desc>
    <defs>
        <path d="M128,12 C167.432224,12 164.726091,58.3990428 167.432224,60.718995 C170.138357,63.0389471 245.503451,76.197592 243.977128,116.397846 C242.817357,146.943883 192.174011,126.837631 192.174011,139.210709 C192.174011,151.583787 258.280974,244.768532 227.35374,243.995214 C217.411022,243.746602 195.369727,243.995214 161.633367,243.995214 C153.213428,243.995214 137.215543,200.035369 128.268936,199.156172 L128,199.142806 C119.10842,199.142806 102.871622,243.995214 94.3666329,243.995214 C60.6302732,243.995214 38.5889778,243.746602 28.6462603,243.995214 C-2.28097388,244.768532 63.8259891,151.583787 63.8259891,139.210709 C63.8259891,126.837631 13.1826432,146.943883 12.0228719,116.397846 C10.4965495,76.197592 85.8616435,63.0389471 88.5677765,60.718995 C91.2739094,58.3990428 88.5677765,12 128,12 L128,12 L128,12 Z" id="path-1"></path>
        <path d="M116,-2.84217094e-14 C155.432224,-2.84217094e-14 152.726091,46.3990428 155.432224,48.718995 C158.138357,51.0389471 233.503451,64.197592 231.977128,104.397846 C230.817357,134.943883 180.174011,114.837631 180.174011,127.210709 C180.174011,139.583787 246.280974,232.768532 215.35374,231.995214 C205.411022,231.746602 183.369727,231.995214 149.633367,231.995214 C141.213428,231.995214 125.215543,188.035369 116.268936,187.156172 L116,187.142806 C107.10842,187.142806 90.8716222,231.995214 82.3666329,231.995214 C48.6302732,231.995214 26.5889778,231.746602 16.6462603,231.995214 C-14.2809739,232.768532 51.8259891,139.583787 51.8259891,127.210709 C51.8259891,114.837631 1.1826432,134.943883 0.0228719165,104.397846 C-1.50345051,64.197592 73.8616435,51.0389471 76.5677765,48.718995 C79.2739094,46.3990428 76.5677765,-2.84217094e-14 116,-2.84217094e-14 L116,-2.84217094e-14 L116,-2.84217094e-14 Z" id="path-2"></path>
    </defs>
    <g id="Meeple/Standard" stroke="none" stroke-width="1" fill="none" fill-rule="evenodd">
        <path d="M128,12 C167.432224,12 164.726091,58.3990428 167.432224,60.718995 C170.138357,63.0389471 245.503451,76.197592 243.977128,116.397846 C242.817357,146.943883 192.174011,126.837631 192.174011,139.210709 C192.174011,151.583787 258.280974,244.768532 227.35374,243.995214 C217.411022,243.746602 195.369727,243.995214 161.633367,243.995214 C153.213428,243.995214 137.215543,200.035369 128.268936,199.156172 L128,199.142806 C119.10842,199.142806 102.871622,243.995214 94.3666329,243.995214 C60.6302732,243.995214 38.5889778,243.746602 28.6462603,243.995214 C-2.28097388,244.768532 63.8259891,151.583787 63.8259891,139.210709 C63.8259891,126.837631 13.1826432,146.943883 12.0228719,116.397846 C10.4965495,76.197592 85.8616435,63.0389471 88.5677765,60.718995 C91.2739094,58.3990428 88.5677765,12 128,12 L128,12 L128,12 Z" id="Background" fill="#BF0000"></path>
        <g id="Outline">
            <path stroke="#FFFFFF" stroke-width="12" d="M172.364377,56.1165066 C172.566824,56.1754172 172.783802,56.2379736 173.016282,56.3044751 C172.567188,56.1760106 179.349335,58.0823701 181.809407,58.8024744 C191.427948,61.6179836 199.888959,64.541503 208.089562,68.139695 C219.78271,73.270317 229.448536,79.1874356 236.634745,86.1803715 C245.619592,94.9235712 250.410205,105.10533 249.972808,116.62549 C249.625033,125.785177 245.544556,132.425555 238.426812,136.29055 C233.127971,139.167866 226.709948,140.345069 218.269402,140.603637 C215.696482,140.682456 213.583592,140.679011 209.315777,140.623395 C203.259334,140.544469 200.721561,140.586522 198.730022,140.890167 C198.946183,141.471083 199.217132,142.137628 199.541993,142.884743 C200.585706,145.285075 202.133189,148.403731 204.260752,152.422037 C206.796432,157.21115 217.899809,177.261911 219.152042,179.560379 C220.814691,182.612164 222.328472,185.428938 223.753744,188.129179 C232.362727,204.439277 237.825906,216.674448 240.24303,226.165381 C241.84365,232.450281 242.110289,237.556438 240.597132,241.698399 C238.572693,247.239886 233.666943,250.154947 227.20376,249.993339 C221.767707,249.857414 217.261607,249.857414 191.475629,249.939936 C179.74896,249.977465 171.231237,249.995214 161.633367,249.995214 C156.808994,249.995214 153.393236,246.710329 149.077726,240.359113 C146.568281,236.665917 144.635634,233.330865 139.717559,224.484393 C139.478124,224.053733 139.478124,224.053733 139.239036,223.623944 C135.218393,216.397935 133.029082,212.671428 130.82959,209.497476 C129.751381,207.941578 128.798594,206.734148 127.999906,205.898277 C127.24479,206.688637 126.343796,207.82081 125.327342,209.272198 C123.096145,212.45811 120.868194,216.242318 116.760964,223.623944 C116.521876,224.053733 116.521876,224.053733 116.282441,224.484393 C111.364366,233.330865 109.431719,236.665917 106.922274,240.359113 C102.606764,246.710329 99.1910063,249.995214 94.3666329,249.995214 C84.7687634,249.995214 76.2510401,249.977465 64.5243714,249.939936 C38.7383934,249.857414 34.2322926,249.857414 28.7962399,249.993339 C22.3330573,250.154947 17.427307,247.239886 15.4028684,241.698399 C13.8897106,237.556438 14.15635,232.450281 15.7569702,226.165381 C18.1740939,216.674448 23.6372726,204.439277 32.2462555,188.129179 C33.6715277,185.428938 35.1853089,182.612164 36.847958,179.560379 C38.1001908,177.261911 49.2035677,157.21115 51.7392483,152.422037 C53.8668114,148.403731 55.4142943,145.285075 56.4580071,142.884743 C56.7828677,142.137628 57.0538171,141.471083 57.2699783,140.890167 C55.2784385,140.586522 52.7406662,140.544469 46.6842225,140.623395 C42.4164084,140.679011 40.3035177,140.682456 37.7305984,140.603637 C29.2900524,140.345069 22.8720289,139.167866 17.5731879,136.29055 C10.4554441,132.425555 6.37496673,125.785177 6.02719195,116.62549 C5.58979473,105.10533 10.3804081,94.9235712 19.3652552,86.1803715 C26.5514643,79.1874356 36.2172897,73.270317 47.9104382,68.139695 C56.111041,64.541503 64.572052,61.6179836 74.1905934,58.8024744 C76.6506646,58.0823701 83.4328121,56.1760106 82.9837178,56.3044751 C83.2161979,56.2379736 83.4331761,56.1754172 83.6356226,56.1165066 C83.9543369,54.0808769 84.588451,49.9400761 84.9279594,48.0699076 C85.8298163,43.1020656 86.9585838,38.6390199 88.5336976,34.3402417 C94.9809426,16.7445129 107.593876,6 128,6 C148.406124,6 161.019057,16.7445129 167.466302,34.3402417 C169.041416,38.6390199 170.170184,43.1020656 171.072041,48.0699076 C171.411549,49.9400761 172.045663,54.0808769 172.364377,56.1165066 Z"></path>
            <path stroke="#000000" stroke-width="6" d="M169.729421,58.4476193 C170.288407,58.633381 171.069438,58.8679014 172.191217,59.1887892 C171.755897,59.0642647 178.525071,60.9669778 180.96662,61.6816603 C190.471983,64.4640402 198.819626,67.3483877 206.884174,70.8868826 C232.579726,82.1613624 247.719802,96.8942458 246.974968,116.511668 C246.667179,124.618205 243.177514,130.297124 236.995228,133.654158 C232.202573,136.25661 226.189051,137.359619 218.177543,137.605044 C215.662055,137.682103 213.579923,137.678709 209.354869,137.623649 C202.606532,137.535707 200.094726,137.592489 197.753675,138.011257 C195.637601,138.389782 195.174011,138.743594 195.174011,139.210709 C195.174011,140.777508 197.348027,145.777313 201.609449,153.825816 C204.160807,158.644539 215.277306,178.718995 216.517644,180.99563 C218.174338,184.036485 219.681988,186.841851 221.100649,189.529567 C229.604349,205.640201 234.994126,217.710983 237.33583,226.905779 C238.800685,232.657592 239.038973,237.220822 237.779282,240.66897 C236.224264,244.925515 232.522109,247.125384 227.27875,246.994277 C221.798858,246.857255 217.306424,246.857255 191.466028,246.939952 C179.742285,246.977471 171.22744,246.995214 161.633367,246.995214 C158.234426,246.995214 155.289431,244.163056 151.559108,238.673069 C149.12075,235.084493 147.207579,231.783049 142.339607,223.026702 C142.100001,222.595735 142.100001,222.595735 141.860553,222.165298 C137.790935,214.85127 135.570543,211.07186 133.295388,207.788723 C130.81055,204.203004 128.830377,202.285021 128.016765,202.147342 L127.963167,202.144678 C127.289837,202.210667 125.342462,204.020894 122.87003,207.551263 C120.558564,210.851791 118.298413,214.69069 114.139447,222.165298 C113.899999,222.595735 113.899999,222.595735 113.660393,223.026702 C108.792421,231.783049 106.87925,235.084493 104.440892,238.673069 C100.710569,244.163056 97.7655744,246.995214 94.3666329,246.995214 C84.7725596,246.995214 76.2577147,246.977471 64.5339721,246.939952 C38.6935755,246.857255 34.2011424,246.857255 28.7212501,246.994277 C23.4778911,247.125384 19.7757362,244.925515 18.2207182,240.66897 C16.9610267,237.220822 17.1993149,232.657592 18.6641701,226.905779 C21.0058744,217.710983 26.3956511,205.640201 34.899351,189.529567 C36.3180121,186.841851 37.825662,184.036485 39.482356,180.99563 C40.722694,178.718995 51.8391926,158.644539 54.3905507,153.825816 C58.6519727,145.777313 60.8259891,140.777508 60.8259891,139.210709 C60.8259891,138.743594 60.3623989,138.389782 58.2463247,138.011257 C55.9052744,137.592489 53.3934677,137.535707 46.645131,137.623649 C42.4200767,137.678709 40.3379454,137.682103 37.8224574,137.605044 C29.8109495,137.359619 23.7974272,136.25661 19.0047718,133.654158 C12.8224864,130.297124 9.33282075,124.618205 9.02503193,116.511668 C8.28019804,96.8942458 23.4202739,82.1613624 49.1158262,70.8868826 C57.180374,67.3483877 65.5280169,64.4640402 75.0333797,61.6816603 C77.4749285,60.9669778 84.2441031,59.0642647 83.8087827,59.1887892 C84.9305624,58.8679014 85.7115926,58.633381 86.2705792,58.4476193 C86.3120712,58.2615907 86.3562171,58.0443303 86.4026592,57.795865 C86.5286716,57.1216989 87.45446,50.9482608 87.8797141,48.6057661 C88.7532449,43.7939573 89.8416796,39.4903835 91.3505605,35.3723675 C97.3978036,18.868318 108.982176,9 128,9 C147.017824,9 158.602196,18.868318 164.64944,35.3723675 C166.15832,39.4903835 167.246755,43.7939573 168.120286,48.6057661 C168.54554,50.9482608 169.471328,57.1216989 169.597341,57.795865 C169.643783,58.0443303 169.687929,58.2615907 169.729421,58.4476193 Z"></path>
        </g>
        <g id="Highlights" transform="translate(13.017143, 12.285714)">
            <mask id="mask-3" fill="white">
                <use xlink:href="#path-2"></use>
            </mask>
            <g id="Mask"></g>
            <circle id="Outer" fill-opacity="0.125" fill="#FFFFFF" mask="url(#mask-3)" cx="96.6971429" cy="97.4285714" r="128"></circle>
            <circle id="Inner" fill-opacity="0.125" fill="#FFFFFF" mask="url(#mask-3)" cx="78.4114286" cy="79.1428571" r="109.714286"></circle>
        </g>
        <path d="M151.399964,233.342899 C154.581412,235.617648 158.015937,237.752237 161.703538,239.746667 C164.794184,241.418234 168.226338,242.831946 172,243.987802 C168.579375,243.992203 165.015902,243.995214 161.311086,243.995214 C158.680218,243.995214 155.307923,239.684898 151.642394,233.736661 Z M27.9601108,210.282082 C23.2618954,227.447511 22.4432535,237.269039 25.5041851,239.746667 C28.5553702,242.216405 51.6306513,243.613024 94.7300284,243.936525 C94.5471992,243.975638 94.3665314,243.995214 94.189231,243.995214 C60.525533,243.995214 38.5317103,243.746602 28.6104074,243.995214 C16.2661583,244.304541 19.4139418,229.580578 27.6352118,211.008588 Z M27.3629429,87.0613903 C20.683362,95.8650885 16.9771052,104.355736 16.2441725,112.533333 C15.4529444,121.361353 18.279458,128.114215 24.7237133,132.79192 C17.6668119,130.629367 12.3878992,126.033981 12.0228227,116.397846 C11.5659121,104.33777 18.0143243,94.7114386 27.3388956,87.0813732 Z M127.750158,12 C129.51913,12 131.203115,12.0937824 132.806424,12.2731254 C124.780327,13.4588126 117.308516,16.7180876 110.387635,22.0533333 C102.256824,28.321303 96.3463805,34.4673461 92.6563038,40.4914626 C96.47769,27.3265599 105.004046,12.5287193 126.582306,12.0138292 L127.750158,12 Z" id="Lights" fill="#FFFFFF"></path>
    </g>
</svg>
